<svg width="23" height="23" viewBox="0 0 23 23" fill="none" xmlns="http://www.w3.org/2000/svg">
<path d="M11.2303 0C5.03842 0 0 5.0344 0 11.2238C0 17.4132 5.03842 22.4476 11.2303 22.4476C17.4223 22.4476 22.4607 17.4132 22.4607 11.2238C22.4607 5.0344 17.4223 0 11.2303 0ZM11.2303 21.7C5.45094 21.7 0.74939 17.0002 0.74939 11.2238C0.74939 5.4474 5.45094 0.7476 11.2303 0.7476C17.0098 0.7476 21.7113 5.4474 21.7113 11.2238C21.7113 17.0002 17.0098 21.7 11.2303 21.7Z" fill="white"/>
<path d="M13.6824 4.92378H11.8138C9.43399 4.89998 9.13004 6.37208 9.13004 7.96528V9.12378H8.07949C8.03201 9.11744 7.9837 9.12213 7.93832 9.13748C7.89295 9.15282 7.85172 9.17842 7.81785 9.21228C7.78397 9.24613 7.75836 9.28734 7.74301 9.33269C7.72765 9.37804 7.72296 9.42632 7.72931 9.47378V11.5738C7.72296 11.6212 7.72765 11.6695 7.74301 11.7149C7.75836 11.7602 7.78397 11.8014 7.81785 11.8353C7.85172 11.8691 7.89295 11.8947 7.93832 11.9101C7.9837 11.9254 8.03201 11.9301 8.07949 11.9238H9.13004V17.1738C9.1242 17.2213 9.12931 17.2696 9.14499 17.3148C9.16066 17.3601 9.18648 17.4012 9.22047 17.435C9.25446 17.4687 9.29572 17.4943 9.3411 17.5097C9.38648 17.5251 9.43479 17.5299 9.48232 17.5238H11.6219C11.8285 17.5476 11.9959 17.3803 11.9301 17.1738L11.9315 11.9238H13.6824C13.7299 11.9301 13.7782 11.9254 13.8236 11.9101C13.8689 11.8947 13.9102 11.8691 13.944 11.8353C13.9779 11.8014 14.0035 11.7602 14.0189 11.7149C14.0342 11.6695 14.0389 11.6212 14.0326 11.5738V9.47378C14.0389 9.42632 14.0342 9.37804 14.0189 9.33269C14.0035 9.28734 13.9779 9.24613 13.944 9.21228C13.9102 9.17842 13.8689 9.15282 13.8236 9.13748C13.7782 9.12213 13.7299 9.11744 13.6824 9.12378H11.9294L11.9315 8.07378C11.9994 7.62648 11.9994 7.69928 12.4147 7.72378H13.6677C13.765 7.70208 13.8687 7.71398 13.9415 7.64328C14.0144 7.57258 14.0564 7.47598 14.0319 7.37378V5.27378C14.0384 5.22636 14.0338 5.17809 14.0185 5.13273C14.0032 5.08737 13.9777 5.04615 13.9439 5.01227C13.9101 4.9784 13.8689 4.95279 13.8235 4.93744C13.7782 4.92209 13.7299 4.91742 13.6824 4.92378V4.92378ZM13.3077 6.98458L12.4295 6.95098C11.3418 6.95098 11.2507 7.54108 11.2507 8.14518L11.2479 9.47238C11.2478 9.52153 11.2575 9.57021 11.2762 9.61564C11.295 9.66108 11.3225 9.70237 11.3572 9.73715C11.392 9.77194 11.4332 9.79953 11.4787 9.81836C11.5241 9.83719 11.5728 9.84688 11.6219 9.84688H13.3322V11.1993H11.6233C11.5241 11.1993 11.4289 11.2386 11.3586 11.3087C11.2884 11.3788 11.2488 11.4739 11.2486 11.5731L11.2479 16.8238H9.8304V11.5738C9.8304 11.3673 9.68963 11.2 9.48232 11.2H8.42967V9.84758H9.48232C9.53146 9.84766 9.58014 9.83805 9.62556 9.81931C9.67099 9.80058 9.71227 9.77308 9.74706 9.73838C9.81709 9.66768 9.8297 9.57248 9.8297 9.47308V7.96458C9.8297 6.39518 10.147 5.64758 11.8131 5.64758H13.307V6.98458H13.3077Z" fill="white"/>
</svg>
